<svg width="295" height="54" viewBox="0 0 295 54" fill="none" xmlns="http://www.w3.org/2000/svg">
<path d="M56.548 38.5714C56.3209 38.5714 56.1278 38.4914 55.9688 38.3314C55.8098 38.1714 55.7303 37.9771 55.7303 37.7486V15.3943C55.7303 15.1657 55.8098 14.9714 55.9688 14.8114C56.1278 14.6514 56.3209 14.5714 56.548 14.5714H59.7169C59.9441 14.5714 60.1372 14.6514 60.2962 14.8114C60.4552 14.9714 60.5347 15.1657 60.5347 15.3943V34.4914H71.3361C71.586 34.4914 71.7904 34.5714 71.9494 34.7314C72.1085 34.8914 72.188 35.0971 72.188 35.3486V37.7486C72.188 37.9771 72.1085 38.1714 71.9494 38.3314C71.7904 38.4914 71.586 38.5714 71.3361 38.5714H56.548Z" fill="#009268"/>
<path d="M82.4533 38.9143C79.9318 38.9143 77.9328 38.1828 76.4563 36.72C74.9797 35.2571 74.1847 33.1771 74.0711 30.48C74.0484 30.2514 74.037 29.9657 74.037 29.6229C74.037 29.2571 74.0484 28.9714 74.0711 28.7657C74.1619 27.0514 74.5481 25.5657 75.2296 24.3086C75.9338 23.0514 76.8992 22.0914 78.1259 21.4286C79.3525 20.7429 80.795 20.4 82.4533 20.4C84.2933 20.4 85.8379 20.7886 87.0873 21.5657C88.3367 22.32 89.2794 23.3829 89.9155 24.7543C90.5515 26.1029 90.8695 27.6686 90.8695 29.4514V30.1714C90.8695 30.4 90.79 30.5943 90.631 30.7543C90.472 30.9143 90.2675 30.9943 90.0177 30.9943H78.7051C78.7051 30.9943 78.7051 31.0286 78.7051 31.0971C78.7051 31.1657 78.7051 31.2229 78.7051 31.2686C78.7278 32.0686 78.8755 32.8114 79.1481 33.4971C79.4434 34.16 79.8636 34.6971 80.4088 35.1086C80.9767 35.52 81.6469 35.7257 82.4192 35.7257C83.0552 35.7257 83.5891 35.6343 84.0207 35.4514C84.4523 35.2457 84.8044 35.0171 85.077 34.7657C85.3495 34.5143 85.5426 34.3086 85.6562 34.1486C85.8607 33.8743 86.0197 33.7143 86.1332 33.6686C86.2695 33.6 86.4626 33.5657 86.7125 33.5657H89.6429C89.87 33.5657 90.0518 33.6343 90.188 33.7714C90.3471 33.9086 90.4152 34.08 90.3925 34.2857C90.3698 34.6514 90.1767 35.0971 89.8132 35.6229C89.4725 36.1486 88.9727 36.6628 88.314 37.1657C87.6552 37.6686 86.8261 38.0914 85.8266 38.4343C84.8498 38.7543 83.7254 38.9143 82.4533 38.9143ZM78.7051 28.1143H86.2355V28.0114C86.2355 27.12 86.0878 26.3429 85.7925 25.68C85.4972 25.0171 85.0656 24.4914 84.4977 24.1029C83.9298 23.7143 83.2483 23.52 82.4533 23.52C81.6582 23.52 80.9767 23.7143 80.4088 24.1029C79.8409 24.4914 79.4093 25.0171 79.114 25.68C78.8414 26.3429 78.7051 27.12 78.7051 28.0114V28.1143Z" fill="#009268"/>
<path d="M99.6316 38.9143C98.4503 38.9143 97.3827 38.6857 96.4286 38.2286C95.4746 37.7486 94.7136 37.12 94.1457 36.3428C93.6005 35.5429 93.3279 34.6514 93.3279 33.6686C93.3279 32.0686 93.9639 30.8 95.236 29.8629C96.5308 28.9029 98.2345 28.2629 100.347 27.9429L105.015 27.2571V26.5371C105.015 25.5771 104.777 24.8343 104.3 24.3086C103.823 23.7829 103.005 23.52 101.846 23.52C101.029 23.52 100.358 23.6914 99.836 24.0343C99.3363 24.3543 98.9615 24.7886 98.7116 25.3371C98.5299 25.6343 98.2686 25.7828 97.9279 25.7828H95.236C94.9862 25.7828 94.7931 25.7143 94.6568 25.5771C94.5432 25.44 94.4864 25.2571 94.4864 25.0286C94.5091 24.6629 94.6568 24.2171 94.9294 23.6914C95.202 23.1657 95.6336 22.6629 96.2242 22.1829C96.8148 21.68 97.5758 21.2571 98.5071 20.9143C99.4385 20.5714 100.563 20.4 101.88 20.4C103.312 20.4 104.516 20.5829 105.492 20.9486C106.492 21.2914 107.287 21.76 107.877 22.3543C108.468 22.9486 108.9 23.6457 109.172 24.4457C109.445 25.2457 109.581 26.0914 109.581 26.9829V37.7486C109.581 37.9771 109.502 38.1714 109.343 38.3314C109.184 38.4914 108.991 38.5714 108.763 38.5714H106.003C105.754 38.5714 105.549 38.4914 105.39 38.3314C105.254 38.1714 105.186 37.9771 105.186 37.7486V36.4114C104.89 36.8457 104.493 37.2571 103.993 37.6457C103.493 38.0114 102.88 38.32 102.153 38.5714C101.449 38.8 100.608 38.9143 99.6316 38.9143ZM100.79 35.6571C101.585 35.6571 102.301 35.4857 102.937 35.1428C103.596 34.8 104.107 34.2743 104.47 33.5657C104.856 32.8343 105.049 31.92 105.049 30.8229V30.1028L101.642 30.6514C100.302 30.8571 99.3022 31.1886 98.6434 31.6457C97.9847 32.1029 97.6553 32.6629 97.6553 33.3257C97.6553 33.8286 97.8029 34.2629 98.0982 34.6286C98.4163 34.9714 98.8138 35.2343 99.2908 35.4171C99.7679 35.5771 100.268 35.6571 100.79 35.6571Z" fill="#009268"/>
<path d="M114.77 38.5714C114.543 38.5714 114.35 38.4914 114.191 38.3314C114.032 38.1714 113.952 37.9771 113.952 37.7486V21.6C113.952 21.3486 114.032 21.1429 114.191 20.9829C114.35 20.8229 114.543 20.7429 114.77 20.7429H117.53C117.757 20.7429 117.95 20.8229 118.109 20.9829C118.291 21.1429 118.382 21.3486 118.382 21.6V23.0057C118.905 22.2743 119.575 21.7143 120.392 21.3257C121.233 20.9371 122.198 20.7429 123.289 20.7429H124.686C124.936 20.7429 125.129 20.8229 125.265 20.9829C125.424 21.1429 125.504 21.3371 125.504 21.5657V24.0343C125.504 24.2629 125.424 24.4571 125.265 24.6171C125.129 24.7771 124.936 24.8571 124.686 24.8571H122.028C120.938 24.8571 120.086 25.1657 119.472 25.7828C118.882 26.4 118.587 27.2457 118.587 28.32V37.7486C118.587 37.9771 118.507 38.1714 118.348 38.3314C118.189 38.4914 117.985 38.5714 117.735 38.5714H114.77Z" fill="#009268"/>
<path d="M128.979 38.5714C128.752 38.5714 128.559 38.4914 128.4 38.3314C128.241 38.1714 128.161 37.9771 128.161 37.7486V21.5657C128.161 21.3371 128.241 21.1429 128.4 20.9829C128.559 20.8229 128.752 20.7429 128.979 20.7429H131.773C132 20.7429 132.193 20.8229 132.352 20.9829C132.511 21.1429 132.591 21.3371 132.591 21.5657V22.9714C133.181 22.24 133.931 21.6343 134.84 21.1543C135.771 20.6514 136.918 20.4 138.281 20.4C139.667 20.4 140.871 20.72 141.893 21.36C142.915 21.9771 143.699 22.8571 144.244 24C144.812 25.1429 145.096 26.5143 145.096 28.1143V37.7486C145.096 37.9771 145.016 38.1714 144.857 38.3314C144.698 38.4914 144.505 38.5714 144.278 38.5714H141.279C141.052 38.5714 140.859 38.4914 140.7 38.3314C140.541 38.1714 140.462 37.9771 140.462 37.7486V28.32C140.462 26.9943 140.132 25.9543 139.474 25.2C138.838 24.4457 137.906 24.0686 136.68 24.0686C135.498 24.0686 134.556 24.4457 133.851 25.2C133.147 25.9543 132.795 26.9943 132.795 28.32V37.7486C132.795 37.9771 132.716 38.1714 132.557 38.3314C132.398 38.4914 132.204 38.5714 131.977 38.5714H128.979Z" fill="#009268"/>
<path d="M150.242 38.5714C150.015 38.5714 149.821 38.4914 149.662 38.3314C149.503 38.1714 149.424 37.9771 149.424 37.7486V21.5657C149.424 21.3371 149.503 21.1429 149.662 20.9829C149.821 20.8229 150.015 20.7429 150.242 20.7429H153.07C153.32 20.7429 153.513 20.8229 153.649 20.9829C153.808 21.1429 153.888 21.3371 153.888 21.5657V37.7486C153.888 37.9771 153.808 38.1714 153.649 38.3314C153.513 38.4914 153.32 38.5714 153.07 38.5714H150.242ZM150.105 17.7943C149.856 17.7943 149.651 17.7257 149.492 17.5886C149.356 17.4286 149.288 17.2229 149.288 16.9714V14.5029C149.288 14.2743 149.356 14.08 149.492 13.92C149.651 13.76 149.856 13.68 150.105 13.68H153.206C153.456 13.68 153.66 13.76 153.82 13.92C153.979 14.08 154.058 14.2743 154.058 14.5029V16.9714C154.058 17.2229 153.979 17.4286 153.82 17.5886C153.66 17.7257 153.456 17.7943 153.206 17.7943H150.105Z" fill="#009268"/>
<path d="M159.226 38.5714C158.999 38.5714 158.806 38.4914 158.647 38.3314C158.488 38.1714 158.408 37.9771 158.408 37.7486V21.5657C158.408 21.3371 158.488 21.1429 158.647 20.9829C158.806 20.8229 158.999 20.7429 159.226 20.7429H162.02C162.247 20.7429 162.44 20.8229 162.599 20.9829C162.758 21.1429 162.838 21.3371 162.838 21.5657V22.9714C163.429 22.24 164.178 21.6343 165.087 21.1543C166.018 20.6514 167.165 20.4 168.528 20.4C169.914 20.4 171.118 20.72 172.14 21.36C173.162 21.9771 173.946 22.8571 174.491 24C175.059 25.1429 175.343 26.5143 175.343 28.1143V37.7486C175.343 37.9771 175.264 38.1714 175.105 38.3314C174.946 38.4914 174.752 38.5714 174.525 38.5714H171.527C171.3 38.5714 171.107 38.4914 170.948 38.3314C170.788 38.1714 170.709 37.9771 170.709 37.7486V28.32C170.709 26.9943 170.38 25.9543 169.721 25.2C169.085 24.4457 168.153 24.0686 166.927 24.0686C165.746 24.0686 164.803 24.4457 164.099 25.2C163.394 25.9543 163.042 26.9943 163.042 28.32V37.7486C163.042 37.9771 162.963 38.1714 162.804 38.3314C162.645 38.4914 162.452 38.5714 162.225 38.5714H159.226Z" fill="#009268"/>
<path d="M187.679 46.1143C186.02 46.1143 184.657 45.8971 183.59 45.4629C182.522 45.0286 181.682 44.5029 181.068 43.8857C180.455 43.2686 180.012 42.6514 179.739 42.0343C179.49 41.44 179.353 40.9714 179.33 40.6286C179.308 40.4 179.376 40.1943 179.535 40.0114C179.717 39.8514 179.921 39.7714 180.148 39.7714H183.113C183.34 39.7714 183.522 39.8171 183.658 39.9086C183.794 40.0229 183.908 40.2171 183.999 40.4914C184.135 40.7886 184.317 41.1086 184.544 41.4514C184.771 41.7943 185.112 42.08 185.566 42.3086C186.043 42.56 186.69 42.6857 187.508 42.6857C188.371 42.6857 189.098 42.56 189.689 42.3086C190.28 42.0571 190.723 41.6343 191.018 41.04C191.336 40.4457 191.495 39.6229 191.495 38.5714V36.24C190.95 36.9029 190.245 37.44 189.382 37.8514C188.542 38.2629 187.497 38.4686 186.247 38.4686C185.021 38.4686 183.965 38.2743 183.079 37.8857C182.193 37.4743 181.454 36.9143 180.864 36.2057C180.273 35.4743 179.819 34.6171 179.501 33.6343C179.206 32.6514 179.035 31.5657 178.99 30.3771C178.967 29.76 178.967 29.1429 178.99 28.5257C179.035 27.3829 179.206 26.32 179.501 25.3371C179.796 24.3543 180.239 23.4971 180.83 22.7657C181.443 22.0114 182.193 21.4286 183.079 21.0171C183.965 20.6057 185.021 20.4 186.247 20.4C187.542 20.4 188.633 20.6514 189.519 21.1543C190.405 21.6343 191.131 22.24 191.699 22.9714V21.6C191.699 21.3486 191.779 21.1429 191.938 20.9829C192.097 20.8229 192.29 20.7429 192.517 20.7429H195.277C195.504 20.7429 195.697 20.8229 195.856 20.9829C196.015 21.1429 196.095 21.3486 196.095 21.6L196.129 38.1257C196.129 39.7714 195.822 41.1886 195.209 42.3771C194.596 43.5657 193.664 44.48 192.415 45.12C191.188 45.7828 189.609 46.1143 187.679 46.1143ZM187.508 34.8343C188.44 34.8343 189.189 34.6286 189.757 34.2171C190.325 33.8057 190.745 33.2686 191.018 32.6057C191.29 31.9429 191.449 31.2686 191.495 30.5829C191.518 30.2857 191.529 29.9086 191.529 29.4514C191.529 28.9943 191.518 28.6286 191.495 28.3543C191.449 27.6457 191.29 26.9714 191.018 26.3314C190.745 25.6686 190.325 25.1314 189.757 24.72C189.189 24.2857 188.44 24.0686 187.508 24.0686C186.577 24.0686 185.827 24.2857 185.259 24.72C184.691 25.1314 184.283 25.68 184.033 26.3657C183.806 27.0514 183.669 27.8057 183.624 28.6286C183.578 29.1771 183.578 29.7371 183.624 30.3086C183.669 31.1086 183.806 31.8629 184.033 32.5714C184.283 33.2571 184.691 33.8057 185.259 34.2171C185.827 34.6286 186.577 34.8343 187.508 34.8343Z" fill="#009268"/>
<path d="M205.315 38.5714C204.974 38.5714 204.701 38.48 204.497 38.2971C204.315 38.0914 204.19 37.84 204.122 37.5429L200.067 15.5657C200.067 15.4971 200.056 15.44 200.033 15.3943C200.033 15.3486 200.033 15.3143 200.033 15.2914C200.033 15.0857 200.101 14.9143 200.238 14.7771C200.397 14.64 200.567 14.5714 200.749 14.5714H203.747C204.315 14.5714 204.633 14.8 204.701 15.2571L207.53 30.7886L210.596 20.7429C210.664 20.56 210.778 20.3771 210.937 20.1943C211.119 19.9886 211.38 19.8857 211.721 19.8857H213.561C213.924 19.8857 214.185 19.9886 214.344 20.1943C214.503 20.3771 214.606 20.56 214.651 20.7429L217.752 30.7543L220.58 15.2571C220.648 14.8 220.966 14.5714 221.534 14.5714H224.532C224.714 14.5714 224.873 14.64 225.009 14.7771C225.146 14.9143 225.214 15.0857 225.214 15.2914C225.214 15.3143 225.214 15.3486 225.214 15.3943C225.214 15.44 225.203 15.4971 225.18 15.5657L221.125 37.5429C221.08 37.84 220.955 38.0914 220.75 38.2971C220.546 38.48 220.273 38.5714 219.932 38.5714H217.65C217.309 38.5714 217.036 38.48 216.832 38.2971C216.65 38.1143 216.525 37.92 216.457 37.7143L212.641 26.2629L208.824 37.7143C208.734 37.92 208.597 38.1143 208.416 38.2971C208.234 38.48 207.961 38.5714 207.598 38.5714H205.315Z" fill="#B3D967"/>
<path d="M235.739 38.9143C233.218 38.9143 231.219 38.1828 229.742 36.72C228.266 35.2571 227.471 33.1771 227.357 30.48C227.334 30.2514 227.323 29.9657 227.323 29.6229C227.323 29.2571 227.334 28.9714 227.357 28.7657C227.448 27.0514 227.834 25.5657 228.516 24.3086C229.22 23.0514 230.185 22.0914 231.412 21.4286C232.639 20.7429 234.081 20.4 235.739 20.4C237.579 20.4 239.124 20.7886 240.373 21.5657C241.623 22.32 242.565 23.3829 243.202 24.7543C243.838 26.1029 244.156 27.6686 244.156 29.4514V30.1714C244.156 30.4 244.076 30.5943 243.917 30.7543C243.758 30.9143 243.554 30.9943 243.304 30.9943H231.991C231.991 30.9943 231.991 31.0286 231.991 31.0971C231.991 31.1657 231.991 31.2229 231.991 31.2686C232.014 32.0686 232.162 32.8114 232.434 33.4971C232.729 34.16 233.15 34.6971 233.695 35.1086C234.263 35.52 234.933 35.7257 235.705 35.7257C236.341 35.7257 236.875 35.6343 237.307 35.4514C237.738 35.2457 238.09 35.0171 238.363 34.7657C238.636 34.5143 238.829 34.3086 238.942 34.1486C239.147 33.8743 239.306 33.7143 239.419 33.6686C239.556 33.6 239.749 33.5657 239.999 33.5657H242.929C243.156 33.5657 243.338 33.6343 243.474 33.7714C243.633 33.9086 243.701 34.08 243.679 34.2857C243.656 34.6514 243.463 35.0971 243.099 35.6229C242.759 36.1486 242.259 36.6628 241.6 37.1657C240.941 37.6686 240.112 38.0914 239.113 38.4343C238.136 38.7543 237.011 38.9143 235.739 38.9143ZM231.991 28.1143H239.522V28.0114C239.522 27.12 239.374 26.3429 239.079 25.68C238.783 25.0171 238.352 24.4914 237.784 24.1029C237.216 23.7143 236.534 23.52 235.739 23.52C234.944 23.52 234.263 23.7143 233.695 24.1029C233.127 24.4914 232.695 25.0171 232.4 25.68C232.127 26.3429 231.991 27.12 231.991 28.0114V28.1143Z" fill="#B3D967"/>
<path d="M248.59 38.5714C248.363 38.5714 248.17 38.4914 248.011 38.3314C247.852 38.1714 247.772 37.9771 247.772 37.7486V21.6C247.772 21.3486 247.852 21.1429 248.011 20.9829C248.17 20.8229 248.363 20.7429 248.59 20.7429H251.35C251.577 20.7429 251.77 20.8229 251.93 20.9829C252.111 21.1429 252.202 21.3486 252.202 21.6V23.0057C252.725 22.2743 253.395 21.7143 254.212 21.3257C255.053 20.9371 256.018 20.7429 257.109 20.7429H258.506C258.756 20.7429 258.949 20.8229 259.085 20.9829C259.244 21.1429 259.324 21.3371 259.324 21.5657V24.0343C259.324 24.2629 259.244 24.4571 259.085 24.6171C258.949 24.7771 258.756 24.8571 258.506 24.8571H255.848C254.758 24.8571 253.906 25.1657 253.292 25.7828C252.702 26.4 252.407 27.2457 252.407 28.32V37.7486C252.407 37.9771 252.327 38.1714 252.168 38.3314C252.009 38.4914 251.805 38.5714 251.555 38.5714H248.59Z" fill="#B3D967"/>
<path d="M262.833 38.5714C262.606 38.5714 262.413 38.4914 262.254 38.3314C262.095 38.1714 262.015 37.9771 262.015 37.7486V15.0514C262.015 14.8229 262.095 14.6286 262.254 14.4686C262.413 14.3086 262.606 14.2286 262.833 14.2286H265.593C265.843 14.2286 266.036 14.3086 266.172 14.4686C266.331 14.6286 266.411 14.8229 266.411 15.0514V26.7771L272.135 21.3257C272.34 21.1429 272.521 21.0057 272.68 20.9143C272.839 20.8 273.078 20.7429 273.396 20.7429H276.565C276.792 20.7429 276.974 20.8114 277.11 20.9486C277.246 21.0857 277.314 21.2686 277.314 21.4971C277.314 21.5886 277.292 21.6914 277.246 21.8057C277.201 21.92 277.11 22.0229 276.974 22.1143L269.954 28.7314L277.825 37.2343C278.053 37.4629 278.166 37.6571 278.166 37.8171C278.166 38.0457 278.087 38.2286 277.928 38.3657C277.791 38.5028 277.621 38.5714 277.417 38.5714H274.18C273.839 38.5714 273.589 38.5257 273.43 38.4343C273.294 38.32 273.123 38.1714 272.919 37.9886L266.411 31.0971V37.7486C266.411 37.9771 266.331 38.1714 266.172 38.3314C266.036 38.4914 265.843 38.5714 265.593 38.5714H262.833Z" fill="#B3D967"/>
<path d="M287.095 38.9143C285.732 38.9143 284.562 38.7543 283.585 38.4343C282.631 38.1143 281.847 37.7143 281.234 37.2343C280.621 36.7543 280.167 36.2743 279.871 35.7943C279.576 35.3143 279.417 34.9143 279.394 34.5943C279.371 34.3429 279.44 34.1486 279.599 34.0114C279.78 33.8514 279.973 33.7714 280.178 33.7714H282.87C282.961 33.7714 283.04 33.7829 283.108 33.8057C283.176 33.8286 283.267 33.8971 283.381 34.0114C283.676 34.2628 283.983 34.5257 284.301 34.8C284.642 35.0743 285.039 35.3143 285.493 35.52C285.948 35.7029 286.516 35.7943 287.197 35.7943C288.083 35.7943 288.821 35.6228 289.412 35.28C290.025 34.9143 290.332 34.4 290.332 33.7371C290.332 33.2571 290.196 32.8686 289.923 32.5714C289.673 32.2743 289.196 32.0114 288.492 31.7829C287.788 31.5314 286.788 31.2686 285.493 30.9943C284.221 30.6971 283.165 30.32 282.325 29.8629C281.484 29.4057 280.859 28.8343 280.45 28.1486C280.042 27.4629 279.837 26.6629 279.837 25.7486C279.837 24.8571 280.098 24.0114 280.621 23.2114C281.166 22.3886 281.961 21.7143 283.006 21.1886C284.074 20.6629 285.391 20.4 286.959 20.4C288.185 20.4 289.253 20.56 290.161 20.88C291.07 21.1771 291.82 21.5543 292.41 22.0114C293.024 22.4686 293.489 22.9371 293.807 23.4171C294.125 23.8743 294.296 24.2743 294.319 24.6171C294.341 24.8686 294.273 25.0743 294.114 25.2343C293.955 25.3714 293.773 25.44 293.569 25.44H291.047C290.934 25.44 290.832 25.4171 290.741 25.3714C290.65 25.3257 290.559 25.2686 290.468 25.2C290.218 24.9714 289.946 24.7314 289.65 24.48C289.355 24.2286 288.992 24.0114 288.56 23.8286C288.151 23.6229 287.606 23.52 286.924 23.52C286.061 23.52 285.403 23.7143 284.948 24.1029C284.494 24.4686 284.267 24.9371 284.267 25.5086C284.267 25.8971 284.369 26.24 284.573 26.5371C284.801 26.8114 285.243 27.0743 285.902 27.3257C286.561 27.5771 287.561 27.84 288.901 28.1143C290.423 28.3886 291.627 28.8 292.513 29.3486C293.421 29.8743 294.057 30.4914 294.421 31.2C294.807 31.8857 295 32.6514 295 33.4971C295 34.5257 294.693 35.4514 294.08 36.2743C293.489 37.0971 292.603 37.7486 291.422 38.2286C290.264 38.6857 288.821 38.9143 287.095 38.9143Z" fill="#B3D967"/>
<path d="M20.0929 39.6031V51.9414C19.0938 48.1621 17.4286 44.7163 15.2084 41.7151C16.8736 41.0481 18.5387 40.3812 20.0929 39.6031Z" fill="#009267"/>
<path d="M42.0729 25.5975V46.1613C42.0729 46.4947 41.8508 46.9394 41.4068 47.0505L23.3121 53.831C22.6461 54.0533 22.091 53.6087 22.091 52.9418V38.6027C29.3067 34.9346 36.0783 30.3772 41.9618 24.9306C42.0729 25.1529 42.0729 25.3752 42.0729 25.5975Z" fill="#009267"/>
<path d="M20.0928 32.7115L20.0929 39.6031C18.5387 40.3812 16.8736 41.0481 15.2084 41.7151C10.324 43.6047 5.21748 45.1609 0 46.1613V25.5975C0 24.9306 0.666061 24.486 1.22111 24.7083L19.4268 31.8222C19.8708 32.0445 20.0928 32.378 20.0928 32.7115Z" fill="#B3D967"/>
<path d="M21.092 12.2271C17.7617 12.2271 14.9864 9.44822 14.9864 6.11355C14.9864 2.77889 17.7617 0 21.092 0C24.4223 0 27.1975 2.77889 27.1975 6.11355C27.1975 9.44822 24.4223 12.2271 21.092 12.2271Z" fill="#B3D967"/>
<path d="M6.8665 24.0957V10.1968C6.8665 9.74112 7.32161 9.39935 7.66294 9.6272L19.6095 14.4121C19.837 14.526 19.9508 14.7538 19.9508 14.9817V28.6528C19.9508 29.1085 19.4957 29.4502 19.1544 29.2224L7.32161 24.6654C6.98028 24.5514 6.8665 24.3236 6.8665 24.0957Z" fill="#B3D967"/>
<path d="M21.9991 28.6531V14.9821C21.9991 14.7542 22.1129 14.5264 22.4542 14.4124L34.6283 9.62756C35.0834 9.51364 35.5386 9.74149 35.5386 10.1972V24.0961C35.5386 24.324 35.4248 24.5518 35.0834 24.6657L22.9093 29.2228C22.4542 29.4506 21.9991 29.1088 21.9991 28.6531Z" fill="#B3D967"/>
<path d="M41.8508 24.9306C35.9673 30.3772 29.3067 34.9346 21.98 38.6027V32.7115C21.98 32.378 22.202 31.9334 22.5351 31.8222L40.7407 24.7083C41.1848 24.5971 41.6288 24.7083 41.8508 24.9306Z" fill="#B3D967"/>
<path d="M20.0929 51.9414L20.0928 53.0529C20.0928 53.7199 19.4268 54.1645 18.8717 53.9422L0.666061 47.0505C0.22202 46.9394 0 46.6059 0 46.1613V46.0501C5.32849 45.0497 10.3239 43.6047 15.2084 41.6039C17.4286 44.7163 19.0938 48.1621 20.0929 51.9414Z" fill="#003366"/>
<path d="M15.2084 41.7151C10.324 43.6047 5.21748 45.1609 0 46.1613L1.25649e-05 30.7107C6.21658 32.6003 11.5451 36.4908 15.2084 41.7151Z" fill="#8BB866"/>
</svg>
